<svg xmlns="http://www.w3.org/2000/svg" aria-hidden="true" style="position:absolute;width:0;height:0;overflow:hidden">
<defs>
<symbol id="icon-ticket" viewBox="0 0 32 32">
<path fill="#fff" d="M26.152 1.405a3.2 3.2 0 1 1 5.297 3.591l-17.356 25.6c-1.269 1.872-4.028 1.872-5.297 0L.552 18.436a3.199 3.199 0 1 1 5.297-3.591l5.595 8.253L26.151 1.405z" style="fill:var(--color1, #fff)"/>
</symbol>
<symbol id="icon-logo" viewBox="0 0 277 32">
<path fill="#ae1332" d="M25.851 2.057h-3.564c-1.1 0-1.991.874-1.991 1.951v3.493c0 1.078.892 1.951 1.991 1.951h3.564c1.1 0 1.991-.874 1.991-1.951V4.008c0-1.078-.892-1.951-1.991-1.951zM5.983 22.258H2.145c-1.184 0-2.144.874-2.144 1.951v3.493c0 1.078.96 1.951 2.144 1.951h3.838c1.184 0 2.144-.874 2.144-1.951v-3.493c0-1.078-.96-1.951-2.144-1.951zM5.555 12.073H1.991c-1.1 0-1.991.874-1.991 1.951v3.493c0 1.078.892 1.951 1.991 1.951h3.564c1.1 0 1.991-.874 1.991-1.951v-3.493c0-1.078-.892-1.951-1.991-1.951zM15.792 22.203h-3.564c-1.1 0-1.991.874-1.991 1.951v3.493c0 1.078.892 1.951 1.992 1.951h3.564c1.1 0 1.991-.874 1.991-1.951v-3.493c0-1.078-.892-1.951-1.991-1.951zM5.555 1.854H1.991C.891 1.854 0 2.728 0 3.805v3.493c0 1.078.892 1.951 1.991 1.951h3.564c1.1 0 1.991-.874 1.991-1.951V3.805c0-1.078-.892-1.951-1.991-1.951zM16.067 12.176h-3.564c-1.1 0-1.991.874-1.991 1.951v3.493c0 1.078.892 1.951 1.991 1.951h3.564c1.1 0 1.991-.874 1.991-1.951v-3.493c0-1.078-.891-1.951-1.991-1.951zM26.074 22.203H22.51c-1.1 0-1.991.874-1.991 1.951v3.493c0 1.078.892 1.951 1.991 1.951h3.564c1.1 0 1.991-.874 1.991-1.951v-3.493c0-1.078-.892-1.951-1.991-1.951zM15.636 1.977h-3.564c-1.1 0-1.991.874-1.991 1.951v3.493c0 1.078.892 1.951 1.991 1.951h3.564c1.1 0 1.991-.874 1.991-1.952V3.928c0-1.078-.892-1.951-1.991-1.951zM25.817 12.379h-3.564c-1.1 0-1.991.874-1.991 1.951v3.493c0 1.078.892 1.951 1.991 1.951h3.564c1.1 0 1.991-.874 1.991-1.951V14.33c0-1.078-.892-1.951-1.991-1.951zM44.921 24.889V7.467h11.25v2.564h-8.064v4.878h6.521v2.514h-6.521v7.467h-3.186zm12.713 0V7.467h6.396c1.394 0 2.539.241 3.435.722.913.465 1.593 1.103 2.041 1.916.448.796.672 1.684.672 2.663a5.283 5.283 0 0 1-.846 2.912c-.548.879-1.41 1.518-2.588 1.916l3.609 7.292h-3.659l-3.236-6.869H60.82v6.869h-3.186zm3.185-9.209h3.012c1.062 0 1.842-.257 2.34-.772s.747-1.195.747-2.041c0-.83-.249-1.493-.747-1.991-.481-.498-1.269-.747-2.364-.747H60.82v5.55zm11.326 9.209V7.467h11.374v2.564h-8.188v4.779h7.442v2.489h-7.442v5.028h8.188v2.564H72.145zm19.342.299c-1.278 0-2.406-.216-3.385-.647-.979-.448-1.751-1.079-2.315-1.892-.564-.83-.855-1.833-.871-3.012h3.36c.033.813.324 1.502.871 2.066.564.548 1.336.821 2.315.821.846 0 1.518-.199 2.016-.597.498-.415.747-.962.747-1.643 0-.713-.224-1.269-.672-1.668-.431-.398-1.012-.722-1.742-.971l-2.34-.796c-1.344-.465-2.373-1.062-3.086-1.792-.697-.73-1.045-1.701-1.045-2.912-.017-1.029.224-1.908.722-2.638.514-.747 1.211-1.319 2.091-1.717.879-.415 1.892-.622 3.036-.622 1.161 0 2.182.207 3.061.622.896.415 1.593.996 2.091 1.742.514.747.788 1.634.821 2.663h-3.41c-.017-.614-.257-1.153-.722-1.618-.448-.481-1.079-.722-1.892-.722-.697-.017-1.286.158-1.767.523-.465.348-.697.863-.697 1.543 0 .581.183 1.045.548 1.394.365.332.863.614 1.493.846s1.352.481 2.165.747c.863.299 1.651.647 2.364 1.045s1.286.929 1.717 1.593c.431.647.647 1.485.647 2.514 0 .913-.232 1.759-.697 2.539s-1.153 1.41-2.066 1.892c-.913.465-2.033.697-3.36.697zm7.906-.299V7.467h3.186v7.243h7.815V7.467h3.186v17.422h-3.186v-7.591h-7.815v7.591h-3.186zm21.513 0V7.467h3.186v7.243h7.815V7.467h3.186v17.422h-3.186v-7.591h-7.815v7.591h-3.186zm15.457 0 6.372-17.422h3.584l6.372 17.422h-3.385l-1.394-4.032h-6.795l-1.419 4.032h-3.335zm5.625-6.521h5.052l-2.539-7.243-2.514 7.243zm11.951 6.521V7.467h6.396c1.394 0 2.539.241 3.435.722.913.465 1.593 1.103 2.041 1.916.448.796.672 1.684.672 2.663a5.283 5.283 0 0 1-.846 2.912c-.548.879-1.411 1.518-2.588 1.916l3.609 7.292h-3.659l-3.236-6.869h-2.638v6.869h-3.186zm3.186-9.209h3.012c1.062 0 1.842-.257 2.34-.772s.747-1.195.747-2.041c0-.83-.249-1.493-.747-1.991-.481-.498-1.269-.747-2.364-.747h-2.987v5.55zm15.77 9.209-6.372-17.422h3.41l4.928 14.162 4.954-14.162h3.36l-6.372 17.422h-3.908zm11.356 0V7.467h11.374v2.564h-8.188v4.779h7.442v2.489h-7.442v5.028h8.188v2.564h-11.374zm19.34.299c-1.276 0-2.405-.216-3.385-.647-.978-.448-1.749-1.079-2.315-1.892-.564-.83-.853-1.833-.871-3.012h3.36c.034.813.324 1.502.871 2.066.565.548 1.337.821 2.315.821.846 0 1.518-.199 2.016-.597.498-.415.747-.962.747-1.643 0-.713-.224-1.269-.672-1.668-.43-.398-1.012-.722-1.742-.971l-2.34-.796c-1.344-.465-2.372-1.062-3.086-1.792-.697-.73-1.045-1.701-1.045-2.912-.016-1.029.224-1.908.722-2.638.516-.747 1.212-1.319 2.091-1.717.88-.415 1.892-.622 3.036-.622 1.163 0 2.183.207 3.061.622.896.415 1.593.996 2.091 1.742.516.747.789 1.634.821 2.663h-3.41c-.016-.614-.256-1.153-.722-1.618-.448-.481-1.077-.722-1.892-.722-.697-.017-1.285.158-1.767.523-.464.348-.697.863-.697 1.543 0 .581.183 1.045.548 1.394.366.332.864.614 1.493.846.631.232 1.353.481 2.165.747.864.299 1.652.647 2.364 1.045a4.775 4.775 0 0 1 1.717 1.593c.432.647.647 1.485.647 2.514a4.86 4.86 0 0 1-.697 2.539c-.464.78-1.152 1.41-2.066 1.892-.912.465-2.032.697-3.36.697zm11.746-.299V10.03h-5.077V7.466h13.365v2.564h-5.102v14.859h-3.186zm14.587 0V7.467h6.994c1.81 0 3.186.423 4.132 1.269.964.83 1.444 1.9 1.444 3.211 0 1.095-.299 1.975-.896 2.638a4.366 4.366 0 0 1-2.14 1.319 4.131 4.131 0 0 1 2.464 1.493c.647.78.971 1.692.971 2.738 0 1.377-.498 2.514-1.493 3.41s-2.405 1.344-4.231 1.344h-7.243zm3.185-10.105h3.335c.896 0 1.586-.207 2.066-.622.482-.415.722-1.004.722-1.767 0-.73-.24-1.303-.722-1.717-.464-.431-1.17-.647-2.116-.647h-3.285v4.754zm0 7.516h3.559c.946 0 1.676-.216 2.19-.647.532-.448.796-1.07.796-1.867 0-.813-.274-1.452-.821-1.916s-1.285-.697-2.215-.697h-3.509V22.3zm19.684 2.888c-1.742 0-3.268-.382-4.58-1.145a8.238 8.238 0 0 1-3.061-3.161c-.729-1.361-1.095-2.929-1.095-4.704s.366-3.335 1.095-4.679c.747-1.361 1.767-2.423 3.061-3.186 1.312-.763 2.837-1.145 4.58-1.145 1.726 0 3.244.382 4.555 1.145a7.952 7.952 0 0 1 3.061 3.186c.731 1.344 1.095 2.904 1.095 4.679s-.364 3.343-1.095 4.704a7.996 7.996 0 0 1-3.061 3.161c-1.31.763-2.828 1.145-4.555 1.145zm0-2.863c1.66 0 2.98-.548 3.957-1.643.996-1.095 1.493-2.597 1.493-4.505s-.498-3.41-1.493-4.505c-.978-1.095-2.297-1.643-3.957-1.643-1.659 0-2.987.548-3.982 1.643s-1.493 2.597-1.493 4.505.498 3.41 1.493 4.505 2.324 1.643 3.982 1.643zm8.419 2.564 5.451-8.811-5.525-8.612h3.659l3.908 6.073 3.584-6.073h3.584l-5.451 8.761 5.575 8.661h-3.659l-3.957-6.148-3.584 6.148h-3.584z" style="fill:var(--color2, #ae1332)"/>
</symbol>
<symbol id="icon-close" viewBox="0 0 32 32">
<path fill="none" stroke="#ae1332" stroke-linecap="round" stroke-linejoin="round" stroke-width="3.429" d="M24 8 8 24M8 8l16 16" style="stroke:var(--color2, #ae1332)"/>
</symbol>
<symbol id="icon-arrow" viewBox="0 0 32 32">
<path d="M32 4.741 27.259 0v23.704L3.555 0-.001 3.556 23.703 27.26H-.001l4.741 4.741h27.259V4.742z"/>
</symbol>
<symbol id="icon-cart" viewBox="0 0 32 32">
<path fill="#ae1332" d="M25.333 9.333h-4V8a5.332 5.332 0 1 0-10.666 0v1.333h-4a1.333 1.333 0 0 0-1.334 1.333v14.667a4.003 4.003 0 0 0 4 4h13.333a4 4 0 0 0 4-4V10.666a1.331 1.331 0 0 0-1.333-1.333zM13.333 8a2.668 2.668 0 0 1 5.334 0v1.333h-5.333V8zM24 25.333a1.333 1.333 0 0 1-1.333 1.334H9.334A1.334 1.334 0 0 1 8 25.333V12h2.667v1.333a1.335 1.335 0 0 0 2.277.943c.25-.25.39-.589.39-.943V12h5.333v1.333a1.333 1.333 0 1 0 2.666 0V12H24v13.333z" style="fill:var(--color2, #ae1332)"/>
</symbol>
<symbol id="icon-youtube" viewBox="0 0 32 32">
<path fill="#ae1332" d="M21.244 9.636c-.865-.051-2.647-.102-5.345-.102h-.356c-2.596 0-4.327.051-5.193.153-1.171.102-1.985.407-2.444.815-.407.356-.713 1.018-.815 1.884-.051.56-.102 1.731-.102 3.513v.255c0 1.68.051 2.851.153 3.411.153.815.407 1.425.916 1.782.509.407 1.375.662 2.596.764.865.051 2.647.102 5.345.102h.356c2.596 0 4.327-.051 5.193-.153 1.171-.102 1.985-.407 2.444-.815.407-.356.713-1.018.815-1.884.051-.56.102-1.731.102-3.513v-.255c0-1.68-.051-2.851-.153-3.411-.153-.815-.407-1.425-.916-1.782-.509-.407-1.375-.662-2.596-.764zm-1.986 6.262-5.6 3.36v-6.72l5.6 3.36z" opacity=".8" style="fill:var(--color2, #ae1332)"/>
<path fill="none" stroke="#ae1332" stroke-width=".727" d="M7.273.364h17.455a6.909 6.909 0 0 1 6.909 6.909v17.455a6.909 6.909 0 0 1-6.909 6.909H7.273a6.909 6.909 0 0 1-6.909-6.909V7.273A6.909 6.909 0 0 1 7.273.364z" style="stroke:var(--color2, #ae1332)"/>
</symbol>
<symbol id="icon-instagram" viewBox="0 0 32 32">
<path fill="#ae1332" d="M24.093 12.663a5.895 5.895 0 0 0-.379-2.001 4.166 4.166 0 0 0-2.382-2.378 5.96 5.96 0 0 0-1.978-.379c-.87-.039-1.146-.05-3.355-.05s-2.492 0-3.356.05a5.99 5.99 0 0 0-1.977.379 4.163 4.163 0 0 0-2.382 2.378 5.916 5.916 0 0 0-.379 1.973c-.039.87-.051 1.145-.051 3.351s0 2.487.051 3.351c.014.676.141 1.342.379 1.975a4.166 4.166 0 0 0 2.383 2.377 5.94 5.94 0 0 0 1.977.406c.871.039 1.147.051 3.356.051s2.492 0 3.356-.051a6 6 0 0 0 1.978-.378 4.172 4.172 0 0 0 2.382-2.378 5.948 5.948 0 0 0 .379-1.975c.039-.869.051-1.144.051-3.351-.002-2.205-.002-2.485-.052-3.35zm-8.099 7.493c-2.31 0-4.182-1.869-4.182-4.175s1.872-4.175 4.182-4.175c2.309 0 4.182 1.869 4.182 4.175s-1.874 4.175-4.182 4.175zm4.348-7.531a.973.973 0 1 1 0-1.948.973.973 0 1 1 0 1.948z" opacity=".8" style="fill:var(--color2, #ae1332)"/>
<path fill="#ae1332" d="M15.995 18.53a2.548 2.548 0 1 0 0-5.097 2.548 2.548 0 0 0 0 5.097z" opacity=".8" style="fill:var(--color2, #ae1332)"/>
<path fill="none" stroke="#ae1332" stroke-width=".727" d="M7.273.364h17.455a6.909 6.909 0 0 1 6.909 6.909v17.455a6.909 6.909 0 0 1-6.909 6.909H7.273a6.909 6.909 0 0 1-6.909-6.909V7.273A6.909 6.909 0 0 1 7.273.364z" style="stroke:var(--color2, #ae1332)"/>
</symbol>
<symbol id="icon-facebook" viewBox="0 0 32 32">
<path fill="#ae1332" d="M18.24 8.771h.611v2.291h-.764c-.306 0-.611 0-.764.153-.153.153-.153.305-.153.662v.815h1.68v1.935h-1.68v8.4h-2.596v-8.451h-1.375v-1.935h1.375v-.662c0-1.12.153-1.935.458-2.291.458-.662 1.375-.967 2.749-.967.153.051.305.051.458.051z" opacity=".8" style="fill:var(--color2, #ae1332)"/>
<path fill="none" stroke="#ae1332" stroke-width=".727" d="M7.273.364h17.455a6.909 6.909 0 0 1 6.909 6.909v17.455a6.909 6.909 0 0 1-6.909 6.909H7.273a6.909 6.909 0 0 1-6.909-6.909V7.273A6.909 6.909 0 0 1 7.273.364z" style="stroke:var(--color2, #ae1332)"/>
</symbol>
</defs>
</svg>